<svg width="33" height="26" viewBox="0 0 33 26" fill="none" xmlns="http://www.w3.org/2000/svg">
<path d="M6.43246 1.31635e-08H25.8254C26.04 -2.98529e-05 26.2517 0.0507618 26.443 0.148223C26.6343 0.245684 26.7998 0.387049 26.926 0.560762L32.1273 7.71456C32.2198 7.84185 32.2653 7.99726 32.2561 8.15434C32.2469 8.31142 32.1836 8.46047 32.077 8.57611L16.6282 25.3187C16.5645 25.3875 16.4873 25.4425 16.4014 25.48C16.3155 25.5176 16.2227 25.537 16.1289 25.537C16.0351 25.537 15.9424 25.5176 15.8564 25.48C15.7705 25.4425 15.6933 25.3875 15.6296 25.3187L0.180858 8.57748C0.0738545 8.46174 0.0103373 8.31242 0.00115606 8.15504C-0.00802517 7.99765 0.0376991 7.84196 0.130519 7.71456L5.3318 0.560762C5.45803 0.387049 5.62356 0.245684 5.81486 0.148223C6.00615 0.0507618 6.21779 -2.98529e-05 6.43246 1.31635e-08Z" fill="url(#paint0_linear_271_37)"/>
<defs>
<linearGradient id="paint0_linear_271_37" x1="-3.00153" y1="2.28337" x2="30.2927" y2="3.9719" gradientUnits="userSpaceOnUse">
<stop stop-color="#E4576D"/>
<stop offset="1" stop-color="#DE465E"/>
</linearGradient>
</defs>
</svg>
