<svg width="24" height="28" viewBox="0 0 24 28" fill="none" xmlns="http://www.w3.org/2000/svg">
<path d="M1.72875 2.5325L12 0.25L22.2712 2.5325C22.5488 2.5942 22.7971 2.74871 22.975 2.97051C23.153 3.19231 23.25 3.46815 23.25 3.7525V16.2362C23.2499 17.4709 22.945 18.6865 22.3624 19.775C21.7797 20.8636 20.9373 21.7914 19.91 22.4762L12 27.75L4.09 22.4762C3.06284 21.7915 2.22058 20.8639 1.63794 19.7756C1.05529 18.6873 0.750295 17.472 0.75 16.2375V3.7525C0.750049 3.46815 0.847047 3.19231 1.02499 2.97051C1.20293 2.74871 1.45117 2.5942 1.72875 2.5325Z" fill="url(#paint0_linear_271_41)"/>
<defs>
<linearGradient id="paint0_linear_271_41" x1="-1.34362" y1="2.70889" x2="21.9143" y2="3.47291" gradientUnits="userSpaceOnUse">
<stop stop-color="#7465B7"/>
<stop offset="1" stop-color="#6554AF"/>
</linearGradient>
</defs>
</svg>
