<svg width="33" height="26" viewBox="0 0 33 26" fill="none" xmlns="http://www.w3.org/2000/svg">
<path d="M7.16489 0.165802H26.5578C26.7725 0.165772 26.9841 0.216564 27.1754 0.314025C27.3667 0.411486 27.5322 0.552851 27.6585 0.726564L32.8597 7.88036C32.9522 8.00765 32.9977 8.16306 32.9885 8.32014C32.9794 8.47722 32.9161 8.62627 32.8094 8.74192L17.3606 25.4845C17.297 25.5533 17.2197 25.6083 17.1338 25.6458C17.0479 25.6834 16.9551 25.7028 16.8613 25.7028C16.7676 25.7028 16.6748 25.6834 16.5889 25.6458C16.5029 25.6083 16.4257 25.5533 16.362 25.4845L0.91328 8.74328C0.806276 8.62754 0.742759 8.47822 0.733578 8.32084C0.724397 8.16345 0.770121 8.00776 0.862941 7.88036L6.06422 0.726564C6.19045 0.552851 6.35598 0.411486 6.54728 0.314025C6.73857 0.216564 6.95021 0.165772 7.16489 0.165802Z" fill="url(#paint0_linear_230_509)"/>
<defs>
<linearGradient id="paint0_linear_230_509" x1="-2.2691" y1="2.44918" x2="31.0251" y2="4.1377" gradientUnits="userSpaceOnUse">
<stop stop-color="#FBA043"/>
<stop offset="1" stop-color="#FF6C75"/>
</linearGradient>
</defs>
</svg>
